<svg width="25" height="26" viewBox="0 0 25 26" fill="none" xmlns="http://www.w3.org/2000/svg">
<path d="M12.2518 6.71074C8.77363 6.71074 5.96816 9.51621 5.96816 12.9943C5.96816 16.4725 8.77363 19.2779 12.2518 19.2779C15.7299 19.2779 18.5354 16.4725 18.5354 12.9943C18.5354 9.51621 15.7299 6.71074 12.2518 6.71074ZM12.2518 17.0795C10.0041 17.0795 8.1666 15.2475 8.1666 12.9943C8.1666 10.7412 9.99863 8.90918 12.2518 8.90918C14.5049 8.90918 16.3369 10.7412 16.3369 12.9943C16.3369 15.2475 14.4994 17.0795 12.2518 17.0795ZM20.258 6.45371C20.258 7.26856 19.6018 7.91934 18.7924 7.91934C17.9775 7.91934 17.3268 7.26309 17.3268 6.45371C17.3268 5.64434 17.983 4.98809 18.7924 4.98809C19.6018 4.98809 20.258 5.64434 20.258 6.45371ZM24.4197 7.94121C24.3268 5.97793 23.8783 4.23887 22.44 2.80605C21.0072 1.37324 19.2682 0.924805 17.3049 0.826367C15.2814 0.711523 9.2166 0.711523 7.19316 0.826367C5.23535 0.919336 3.49629 1.36777 2.05801 2.80059C0.619727 4.2334 0.176758 5.97246 0.0783203 7.93574C-0.0365234 9.95918 -0.0365234 16.024 0.0783203 18.0475C0.171289 20.0107 0.619727 21.7498 2.05801 23.1826C3.49629 24.6154 5.22988 25.0639 7.19316 25.1623C9.2166 25.2772 15.2814 25.2772 17.3049 25.1623C19.2682 25.0693 21.0072 24.6209 22.44 23.1826C23.8728 21.7498 24.3213 20.0107 24.4197 18.0475C24.5346 16.024 24.5346 9.96465 24.4197 7.94121ZM21.8057 20.2186C21.3791 21.2904 20.5533 22.1162 19.476 22.5482C17.8627 23.1881 14.0346 23.0404 12.2518 23.0404C10.4689 23.0404 6.63535 23.1826 5.02754 22.5482C3.95566 22.1217 3.12988 21.2959 2.69785 20.2186C2.05801 18.6053 2.20566 14.7772 2.20566 12.9943C2.20566 11.2115 2.06348 7.37793 2.69785 5.77012C3.12441 4.69824 3.95019 3.87246 5.02754 3.44043C6.64082 2.80059 10.4689 2.94824 12.2518 2.94824C14.0346 2.94824 17.8682 2.80605 19.476 3.44043C20.5479 3.86699 21.3736 4.69277 21.8057 5.77012C22.4455 7.3834 22.2979 11.2115 22.2979 12.9943C22.2979 14.7772 22.4455 18.6107 21.8057 20.2186Z" fill="white"/>
</svg>
