<svg width="18" height="14" viewBox="0 0 18 14" fill="none" xmlns="http://www.w3.org/2000/svg">
<path d="M0 2H18C18 0.896875 17.1031 0 16 0H2C0.896875 0 0 0.896875 0 2ZM0 3V12C0 13.1031 0.896875 14 2 14H16C17.1031 14 18 13.1031 18 12V3H0ZM2 11.6656C2 10.7437 2.74688 10 3.66563 10H7.33437C8.25625 10 9 10.7469 9 11.6656C9 11.85 8.85 12 8.66562 12H2.33437C2.15 12 2 11.85 2 11.6656ZM5.5 5C6.03043 5 6.53914 5.21071 6.91421 5.58579C7.28929 5.96086 7.5 6.46957 7.5 7C7.5 7.53043 7.28929 8.03914 6.91421 8.41421C6.53914 8.78929 6.03043 9 5.5 9C4.96957 9 4.46086 8.78929 4.08579 8.41421C3.71071 8.03914 3.5 7.53043 3.5 7C3.5 6.46957 3.71071 5.96086 4.08579 5.58579C4.46086 5.21071 4.96957 5 5.5 5ZM11 5.5C11 5.225 11.225 5 11.5 5H15.5C15.775 5 16 5.225 16 5.5C16 5.775 15.775 6 15.5 6H11.5C11.225 6 11 5.775 11 5.5ZM11 7.5C11 7.225 11.225 7 11.5 7H15.5C15.775 7 16 7.225 16 7.5C16 7.775 15.775 8 15.5 8H11.5C11.225 8 11 7.775 11 7.5ZM11 9.5C11 9.225 11.225 9 11.5 9H15.5C15.775 9 16 9.225 16 9.5C16 9.775 15.775 10 15.5 10H11.5C11.225 10 11 9.775 11 9.5Z" fill="black"/>
</svg>
