<svg width="25" height="26" viewBox="0 0 25 26" fill="none" xmlns="http://www.w3.org/2000/svg">
<path d="M23.25 0.75H2.24453C1.28203 0.75 0.5 1.54297 0.5 2.51641V23.4836C0.5 24.457 1.28203 25.25 2.24453 25.25H23.25C24.2125 25.25 25 24.457 25 23.4836V2.51641C25 1.54297 24.2125 0.75 23.25 0.75ZM7.90469 21.75H4.27344V10.0578H7.91016V21.75H7.90469ZM6.08906 8.46094C4.92422 8.46094 3.98359 7.51484 3.98359 6.35547C3.98359 5.19609 4.92422 4.25 6.08906 4.25C7.24844 4.25 8.19453 5.19609 8.19453 6.35547C8.19453 7.52031 7.25391 8.46094 6.08906 8.46094ZM21.5164 21.75H17.8852V16.0625C17.8852 14.7063 17.8578 12.9617 15.9984 12.9617C14.1062 12.9617 13.8164 14.4383 13.8164 15.9641V21.75H10.1852V10.0578H13.6687V11.6547H13.718C14.2047 10.7359 15.3914 9.76797 17.1578 9.76797C20.8328 9.76797 21.5164 12.1906 21.5164 15.3406V21.75Z" fill="white"/>
</svg>
